<svg height="24" viewBox="0 0 500 500" width="24" xmlns="http://www.w3.org/2000/svg">
    <path fill="#DCAF4E" d="M 200,113 C 205.43,113.05,210.86,113.11,217.3,114.8,223.74,116.49,231.18,119.83,238,125,244.82,130.17,251.01,137.17,258,145,264.99,152.83,272.78,161.5,279.4,168.6,286.02,175.7,291.46,181.22,297.3,186.1,303.14,190.98,309.36,195.23,315.5,199.3,321.64,203.37,327.7,207.28,332.8,210.5,337.9,213.72,342.05,216.26,346.2,218.8 C 350.99,218.9,355.78,219,361.7,220.4,367.62,221.8,374.67,224.5,379.6,227.6,384.53,230.7,387.36,234.21,389.7,237.8,392.05,241.39,393.91,245.05,394.9,249.5,395.89,253.95,395.99,259.2,395.5,263.8,395.01,268.4,393.93,272.36,392.5,276.6,391.07,280.84,389.29,285.37,387,289.8,384.71,294.23,381.92,298.55,379.6,302,377.28,305.45,375.45,308.04,372.4,311.9,369.35,315.76,365.1,320.89,361.2,325,357.3,329.11,353.74,332.21,350.8,334.9,347.86,337.59,345.53,339.89,343.1,342.1,340.67,344.31,338.15,346.43,334.9,349,331.65,351.57,327.66,354.59,324.7,356.8,321.74,359.01,319.8,360.42,315.6,363.2,311.4,365.98,304.95,370.14,298.5,374.3 C 298.1,370.23,297.7,366.17,297,362.5,296.3,358.83,295.3,355.57,294.3,352.3 C 301.01,347.69,307.73,343.08,314.4,338.1,321.07,333.12,327.7,327.76,333.7,322.3,339.7,316.84,345.07,311.28,349.6,306.2,354.13,301.12,357.83,296.5,361.3,291.5,364.77,286.5,368,281.1,370.2,276.2,372.4,271.3,373.56,266.91,374.2,263.9,374.84,260.89,374.96,259.28,374.8,257.4,374.64,255.52,374.2,253.38,373.5,251.6,372.8,249.82,371.83,248.41,370.2,247,368.57,245.59,366.28,244.2,364.3,243.3,362.32,242.4,360.65,241.99,358.6,241.5,356.55,241.01,354.11,240.43,351.4,240.1,348.69,239.77,345.7,239.69,342.7,239.8,339.7,239.91,336.68,240.2,332.4,240.7,328.12,241.2,322.6,241.9,317.7,243,312.8,244.1,308.54,245.6,303.9,247.1,299.26,248.6,294.24,250.11,287.6,252.8,280.96,255.49,272.7,259.35,266.6,262.3,260.5,265.25,256.57,267.3,252.3,269.7,248.03,272.1,243.41,274.84,238.1,278.3,232.79,281.76,226.8,285.93,220.8,290.1 C 224.2,302.2,227.6,314.3,231,326.4 A 48.11,47.86,-156.62,1,1,210.9,332.5 C 208.2,323.2,205.5,313.9,202.8,304.6 C 198.44,308.73,194.08,312.85,190.6,316.3,187.12,319.75,184.51,322.52,181.1,326.6,177.69,330.68,173.46,336.08,170.4,340.5,167.34,344.92,165.43,348.37,164,351.4,162.57,354.43,161.62,357.03,160.8,359.7,159.98,362.37,159.28,365.12,159,367.9,158.72,370.68,158.84,373.48,159.6,376,160.36,378.52,161.74,380.74,163,382.2,164.26,383.66,165.4,384.34,167.1,385.2,168.8,386.06,171.05,387.08,173.3,388.1 C 174.59,392.41,175.88,396.72,177.5,400.4,179.12,404.08,181.06,407.14,183,410.2 C 178.63,409.96,174.27,409.72,170,408.8,165.73,407.88,161.57,406.27,157.8,404.3,154.03,402.33,150.65,400,147.6,396.8,144.55,393.6,141.82,389.53,140.1,384.9,138.38,380.27,137.68,375.09,137.6,370.5,137.52,365.91,138.05,361.92,139.2,357.9,140.35,353.88,142.13,349.84,143.9,345.8 C 143.74,338.33,143.58,330.86,143.1,322.6,142.62,314.34,141.8,305.28,141,298.3,140.2,291.32,139.4,286.42,137.4,279.6,135.4,272.78,132.19,264.05,129.3,256.7,126.41,249.35,123.85,243.4,121,236.7,118.15,230,115.03,222.55,113,216.4,110.97,210.25,110.04,205.39,109.5,200.5,108.96,195.61,108.81,190.7,109.5,185.5,110.19,180.3,111.71,174.81,113.2,170.7,114.69,166.59,116.14,163.84,117.6,161.1 C 113.28,153.89,108.95,146.67,106.1,141.1,103.25,135.53,101.86,131.59,101.1,127.4,100.34,123.21,100.21,118.77,100.5,115.3,100.79,111.83,101.51,109.33,103.3,105.8,105.09,102.27,107.94,97.71,111,94.3,114.06,90.89,117.31,88.63,121,86.4,124.69,84.17,128.82,81.95,133.5,80.4,138.18,78.85,143.41,77.96,148.2,77.9,152.99,77.84,157.35,78.61,161,79.7,164.65,80.79,167.59,82.19,171,84.4,174.41,86.61,178.29,89.63,181.5,92.5,184.71,95.37,187.26,98.08,189.6,100.6,191.94,103.12,194.08,105.46,195.9,107.5,197.72,109.54,199.21,111.27,200.7,113 M 174.6,115.1 C 171.96,112.11,169.32,109.12,165.8,106.4,162.28,103.69,157.87,101.25,154.4,100,150.93,98.75,148.41,98.7,145.5,99.2,142.59,99.7,139.28,100.77,136.5,102,133.72,103.23,131.48,104.62,129,106.7,126.52,108.78,123.79,111.54,122.5,114.5,121.21,117.46,121.37,120.6,122.1,123.8,122.83,127,124.14,130.24,125.6,133.2,127.06,136.16,128.68,138.83,130.3,141.5 C 132.94,138.56,135.57,135.62,139.1,132.8,142.63,129.98,147.05,127.3,151.2,125,155.35,122.7,159.23,120.8,163.1,119.3,166.97,117.8,170.84,116.7,174.7,115.6 C 174.42,115.4,174.17,114.85,174.2,114.5" stroke-width="1.0"/>
</svg>